<svg height='100px' width='100px'  fill="#000000" xmlns="http://www.w3.org/2000/svg" xmlns:xlink="http://www.w3.org/1999/xlink" version="1.0" x="0px" y="0px" viewBox="0 0 53 64.5" enable-background="new 0 0 53 64.5" xml:space="preserve"><path fill="#000000" d="M46.36,13.4c0-4.33-3.53-7.86-7.86-7.86s-7.86,3.53-7.86,7.86c0,3.2,1.93,5.96,4.68,7.18v4.02l-8.84,8.84  l-8.78-8.78v-4.08c2.74-1.23,4.66-3.98,4.66-7.17c0-4.33-3.53-7.86-7.86-7.86S6.64,9.07,6.64,13.4c0,3.2,1.93,5.96,4.68,7.18v6.62  h0.1l-0.1,0.1l12,12v5.92c-2.76,1.22-4.68,3.98-4.68,7.18c0,4.33,3.53,7.86,7.86,7.86c4.33,0,7.86-3.53,7.86-7.86  c0-3.19-1.92-5.95-4.66-7.17v-5.99L41.64,27.3l-0.1-0.1h0.16v-6.63C44.44,19.34,46.36,16.59,46.36,13.4z M14.5,9.44  c2.18,0,3.96,1.78,3.96,3.96s-1.78,3.96-3.96,3.96s-3.96-1.78-3.96-3.96S12.32,9.44,14.5,9.44z M26.5,56.36  c-2.18,0-3.96-1.78-3.96-3.96s1.78-3.96,3.96-3.96c2.18,0,3.96,1.78,3.96,3.96S28.68,56.36,26.5,56.36z M38.5,17.36  c-2.18,0-3.96-1.78-3.96-3.96s1.78-3.96,3.96-3.96s3.96,1.78,3.96,3.96S40.68,17.36,38.5,17.36z"></path></svg>