<svg height='100px' width='100px'  fill="#000000" xmlns="http://www.w3.org/2000/svg" xmlns:xlink="http://www.w3.org/1999/xlink" version="1.1" x="0px" y="0px" viewBox="0 0 100 100" style="enable-background:new 0 0 100 100;" xml:space="preserve"><title>60 all</title><path d="M78.4,80.2V19.8c0-1.7-1.3-3-3-3H24.6c-1.7,0-3,1.3-3,3v60.3c0,1.7,1.3,3,3,3h50.8C77.1,83.2,78.4,81.8,78.4,80.2z   M43.5,22.8h13v4.5h-13V22.8z M72.4,77.2H27.6V22.8h9.9v7.5c0,1.7,1.3,3,3,3l0,0h19c1.7,0,3-1.3,3-3l0,0v-7.5h9.9V77.2z"></path></svg>