<svg height='100px' width='100px'  fill="#000000" xmlns="http://www.w3.org/2000/svg" xmlns:xlink="http://www.w3.org/1999/xlink" version="1.0" x="0px" y="0px" viewBox="0 0 100 100" enable-background="new 0 0 100 100" xml:space="preserve"><path d="M26.667,63.806V36.194c5.742-1.487,10-6.656,10-12.861C36.667,15.97,30.696,10,23.333,10S10,15.97,10,23.333  c0,6.205,4.258,11.374,10,12.861v27.611c-5.742,1.487-10,6.656-10,12.861C10,84.03,15.97,90,23.333,90s13.334-5.97,13.334-13.333  C36.667,70.462,32.409,65.293,26.667,63.806z M16.667,23.333c0-3.682,2.984-6.666,6.666-6.666S30,19.651,30,23.333  S27.015,30,23.333,30S16.667,27.015,16.667,23.333z M23.333,83.333c-3.682,0-6.666-2.984-6.666-6.666S19.651,70,23.333,70  S30,72.985,30,76.667S27.015,83.333,23.333,83.333z"></path><path d="M80,63.806V33.333C80,25.974,74.033,20,66.67,20H54.714l5.283-5.286L55.283,10L44.31,20.977  c-1.302,1.299-1.302,3.411,0,4.714l10.977,10.977L60,31.953l-5.286-5.286H66.67c3.682,0,6.663,2.988,6.663,6.666v30.473  c-5.738,1.487-10,6.656-10,12.861C63.333,84.03,69.304,90,76.667,90S90,84.03,90,76.667C90,70.462,85.739,65.293,80,63.806z   M76.667,83.333c-3.682,0-6.667-2.984-6.667-6.666S72.985,70,76.667,70s6.666,2.985,6.666,6.667S80.349,83.333,76.667,83.333z"></path></svg>