<svg height='100px' width='100px'  fill="#000000" xmlns="http://www.w3.org/2000/svg" xmlns:xlink="http://www.w3.org/1999/xlink" version="1.1" x="0px" y="0px" viewBox="0 0 100 100" style="enable-background:new 0 0 100 100;" xml:space="preserve"><path d="M50,60c-5.514,0-10-4.486-10-10s4.486-10,10-10s10,4.486,10,10S55.514,60,50,60z M50,46c-2.206,0-4,1.794-4,4  s1.794,4,4,4s4-1.794,4-4S52.206,46,50,46z M56,81H44c-1.657,0-3-1.343-3-3v-6.832c-1.707-0.728-3.316-1.664-4.814-2.8l-5.935,3.426  c-0.688,0.397-1.508,0.506-2.276,0.3s-1.424-0.709-1.821-1.398l-6-10.393c-0.829-1.435-0.337-3.27,1.098-4.098l5.925-3.42  C27.059,51.851,27,50.92,27,50s0.059-1.851,0.176-2.785l-5.925-3.42c-1.435-0.829-1.927-2.663-1.098-4.098l6-10.393  c0.397-0.689,1.053-1.192,1.821-1.398c0.769-0.206,1.588-0.098,2.276,0.3l5.935,3.426c1.498-1.136,3.107-2.072,4.814-2.8V22  c0-1.657,1.343-3,3-3h12c1.657,0,3,1.343,3,3v6.832c1.707,0.728,3.316,1.664,4.814,2.8l5.935-3.426  c0.689-0.397,1.509-0.505,2.276-0.3c0.769,0.206,1.424,0.709,1.821,1.398l6,10.393c0.829,1.435,0.337,3.27-1.098,4.098l-5.925,3.42  C72.941,48.149,73,49.08,73,50s-0.059,1.851-0.176,2.785l5.925,3.42c1.435,0.829,1.927,2.663,1.098,4.098l-6,10.393  c-0.397,0.689-1.053,1.192-1.821,1.398c-0.768,0.206-1.587,0.098-2.276-0.3l-5.935-3.426c-1.498,1.136-3.107,2.072-4.814,2.8V78  C59,79.657,57.657,81,56,81z M47,75h6v-5.918c0-1.311,0.851-2.47,2.102-2.862c2.354-0.74,4.499-1.986,6.372-3.706  c0.965-0.886,2.393-1.043,3.528-0.388l5.149,2.973l3-5.196l-5.137-2.965c-1.134-0.654-1.712-1.968-1.429-3.247  C66.86,52.448,67,51.206,67,50s-0.14-2.448-0.414-3.69c-0.283-1.278,0.295-2.592,1.429-3.247l5.137-2.965l-3-5.196l-5.149,2.973  c-1.136,0.657-2.563,0.497-3.528-0.388c-1.873-1.719-4.018-2.966-6.372-3.706C53.851,33.388,53,32.229,53,30.918V25h-6v5.918  c0,1.311-0.851,2.47-2.102,2.862c-2.354,0.74-4.499,1.986-6.372,3.706c-0.964,0.885-2.391,1.045-3.528,0.388l-5.149-2.973l-3,5.196  l5.137,2.965c1.134,0.654,1.712,1.968,1.429,3.247C33.14,47.552,33,48.794,33,50s0.14,2.448,0.414,3.69  c0.283,1.278-0.295,2.592-1.429,3.247l-5.137,2.965l3,5.196l5.149-2.973c1.138-0.655,2.564-0.498,3.528,0.388  c1.873,1.719,4.018,2.966,6.372,3.706C46.149,66.612,47,67.771,47,69.082V75z"></path></svg>