<svg height='100px' width='100px'  fill="#000000" xmlns="http://www.w3.org/2000/svg" data-name="Layer 1" viewBox="0 0 100 100" x="0px" y="0px"><title>44 all</title><g data-name="Group"><path data-name="Compound Path" d="M43.7,59.64a4,4,0,0,0-6.83,2.83V74.23h-8a10,10,0,0,1-10-10V34.8a14,14,0,1,0-8-.32V64.23a18,18,0,0,0,18,18h8v8.52a4,4,0,0,0,6.83,2.83L57.84,79.44a4,4,0,0,0,0-5.66ZM15.42,15.25a6,6,0,1,1-6,6A6,6,0,0,1,15.42,15.25ZM44.87,81.1v-9l4.49,4.49Z"></path><path data-name="Compound Path" d="M89.13,65.53V35.77a18,18,0,0,0-18-18h-8V9.25A4,4,0,0,0,56.3,6.42L42.16,20.56a4,4,0,0,0,0,5.66L56.3,40.36a4,4,0,0,0,6.83-2.83V25.77h8a10,10,0,0,1,10,10V65.2a14,14,0,1,0,8,.32Zm-34-37.65-4.49-4.49,4.49-4.49ZM84.58,84.75a6,6,0,1,1,6-6A6,6,0,0,1,84.58,84.75Z"></path></g></svg>