<svg height='100px' width='100px'  fill="#000000" xmlns="http://www.w3.org/2000/svg" xmlns:xlink="http://www.w3.org/1999/xlink" version="1.1" x="0px" y="0px" viewBox="0 0 100 100" style="enable-background:new 0 0 100 100;" xml:space="preserve"><path d="M94.8,92.6H5.2c-1.9,0-3.4-1.5-3.4-3.4V10c0-1.9,1.5-3.4,3.4-3.4S8.6,8.1,8.6,10v75.7h86.2  c1.9,0,3.4,1.5,3.4,3.4C98.2,91,96.7,92.6,94.8,92.6z"></path><path d="M23.8,74.6c-0.7,0-1.4-0.2-2.1-0.7c-1.5-1.1-1.8-3.3-0.7-4.8l20.9-27.6c1-1.4,2.9-1.8,4.4-0.9l15.6,8.6  L82,21.3c1.1-1.5,3.2-1.9,4.8-0.8c1.5,1.1,1.9,3.2,0.8,4.8L65.7,55.7c-1,1.4-2.9,1.8-4.4,1l-15.7-8.7L26.5,73.3  C25.8,74.2,24.8,74.6,23.8,74.6z"></path></svg>