<svg height='100px' width='100px'  fill="#000000" xmlns="http://www.w3.org/2000/svg" xmlns:xlink="http://www.w3.org/1999/xlink" xmlns:sketch="http://www.bohemiancoding.com/sketch/ns" viewBox="0 0 60 60" version="1.1" x="0px" y="0px"><title>130 - Command (Solid)</title><desc>Created with Sketch.</desc><g stroke="none" stroke-width="1" fill="none" fill-rule="evenodd" sketch:type="MSPage"><g sketch:type="MSLayerGroup" fill="#000000"><path d="M49,38 L42,38 L42,22 L49,22 C55.065,22 60,17.065 60,11 C60,4.935 55.065,0 49,0 C42.935,0 38,4.935 38,11 L38,18 L22,18 L22,11 C22,4.935 17.065,0 11,0 C4.935,0 0,4.935 0,11 C0,17.065 4.935,22 11,22 L18,22 L18,38 L11,38 C4.935,38 0,42.935 0,49 C0,55.065 4.935,60 11,60 C17.065,60 22,55.065 22,49 L22,42 L38,42 L38,49 C38,55.065 42.935,60 49,60 C55.065,60 60,55.065 60,49 C60,42.935 55.065,38 49,38 L49,38 Z M42,11 C42,7.141 45.14,4 49,4 C52.86,4 56,7.141 56,11 C56,14.859 52.86,18 49,18 L42,18 L42,11 L42,11 Z M11,18 C7.14,18 4,14.859 4,11 C4,7.141 7.14,4 11,4 C14.86,4 18,7.141 18,11 L18,18 L11,18 L11,18 Z M18,49 C18,52.859 14.86,56 11,56 C7.14,56 4,52.859 4,49 C4,45.141 7.14,42 11,42 L18,42 L18,49 L18,49 Z M22,22 L38,22 L38,38 L22,38 L22,22 Z M49,56 C45.14,56 42,52.859 42,49 L42,42 L49,42 C52.86,42 56,45.141 56,49 C56,52.859 52.86,56 49,56 L49,56 Z" sketch:type="MSShapeGroup"></path></g></g></svg>