<svg height='100px' width='100px'  fill="#000000" xmlns="http://www.w3.org/2000/svg" xmlns:xlink="http://www.w3.org/1999/xlink" version="1.1" x="0px" y="0px" viewBox="0 0 100 100" style="enable-background:new 0 0 100 100;" xml:space="preserve"><g><path d="M50,29.79c-1.46,0-2.64,1.18-2.64,2.64V50c0,0.93,0.49,1.78,1.28,2.26l15.07,9.04c0.42,0.25,0.89,0.38,1.35,0.38   c0.9,0,1.77-0.46,2.26-1.28c0.75-1.25,0.34-2.87-0.9-3.62l-13.79-8.28V32.42C52.64,30.97,51.46,29.79,50,29.79z"></path><path d="M50,13.09c-19.32,0-35.22,14.92-36.79,33.85l-3.09-3.09c-1.03-1.03-2.7-1.03-3.73,0c-1.03,1.03-1.03,2.7,0,3.73l7.46,7.46   c0.51,0.51,1.19,0.77,1.86,0.77s1.35-0.26,1.86-0.77l0.13-0.13c0,0,0,0,0,0l0.02-0.02l7.31-7.31c1.03-1.03,1.03-2.7,0-3.73   c-1.03-1.03-2.7-1.03-3.73,0l-2.76,2.76C20.24,30.75,33.7,18.36,50,18.36c17.45,0,31.64,14.19,31.64,31.64   c0,17.45-14.19,31.64-31.64,31.64c-12.17,0-23.41-7.12-28.62-18.13c-0.62-1.32-2.19-1.88-3.51-1.26c-1.32,0.62-1.88,2.19-1.26,3.51   c2.95,6.23,7.57,11.51,13.38,15.26c5.96,3.85,12.88,5.89,20.01,5.89c20.35,0,36.91-16.56,36.91-36.91   C86.91,29.65,70.35,13.09,50,13.09z"></path></g></svg>